<?xml version="1.0" encoding="utf-8"?>
<!-- Generator: Adobe Illustrator 19.2.1, SVG Export Plug-In . SVG Version: 6.00 Build 0)  -->
<svg version="1.1" id="Layer_1" xmlns="http://www.w3.org/2000/svg" xmlns:xlink="http://www.w3.org/1999/xlink" x="0px" y="0px"
	 viewBox="0 0 98 8" style="enable-background:new 0 0 98 8;" xml:space="preserve">
<style type="text/css">
	.st0{fill:#EB6852;}
</style>
<path class="st0" d="M79,3.1c-0.2-0.2-0.2-0.7,0.1-1c0.3-0.3,0.8-0.4,1-0.1c0.2,0.2,0.2,0.7-0.1,1C79.7,3.2,79.3,3.3,79,3.1
	 M85.4,3.1c0.2,0.2,0.7,0.2,1-0.1c0.3-0.3,0.4-0.8,0.1-1c-0.2-0.2-0.7-0.2-1,0.1C85.2,2.3,85.2,2.8,85.4,3.1 M78,5.1
	c-0.3-0.3-0.8-0.4-1-0.1c-0.2,0.2-0.2,0.7,0.1,1c0.3,0.3,0.8,0.4,1,0.1C78.4,5.9,78.3,5.4,78,5.1 M84.4,5.1c-0.3-0.3-0.8-0.4-1-0.1
	c-0.2,0.2-0.2,0.7,0.1,1c0.3,0.3,0.8,0.4,1,0.1C84.8,5.9,84.7,5.4,84.4,5.1 M88.8,7.4c0,0,0.2-0.9-0.8-1.8c-0.5-0.5-1.3-1-1.9-1.3
	h5.8c0.2,0.5,0.8,1.6,1.5,2.3c1,1,1.8,0.8,1.8,0.8s0.2-0.9-0.8-1.8c-0.5-0.5-1.3-1-1.9-1.3h4.8c0.2,0,0.3-0.1,0.3-0.3
	c0-0.2-0.1-0.3-0.3-0.3h-2.7c0.6-0.3,1.4-0.7,1.9-1.3c1-1,0.8-1.8,0.8-1.8s-0.9-0.2-1.8,0.8c-0.7,0.7-1.2,1.8-1.5,2.3h-5.8
	c0.6-0.3,1.4-0.7,1.9-1.3c1-1,0.8-1.8,0.8-1.8s-0.9-0.2-1.8,0.8c-0.7,0.7-1.2,1.8-1.5,2.3h-5.8c0.6-0.3,1.4-0.7,1.9-1.3
	c1-1,0.8-1.8,0.8-1.8s-0.9-0.2-1.8,0.8c-0.7,0.7-1.2,1.8-1.5,2.3h-5.8c0.6-0.3,1.4-0.7,1.9-1.3c1-1,0.8-1.8,0.8-1.8
	s-0.9-0.2-1.8,0.8c-0.7,0.7-1.2,1.8-1.5,2.3H69c0.6-0.3,1.4-0.7,1.9-1.3c1-1,0.8-1.8,0.8-1.8s-0.9-0.2-1.8,0.8
	c-0.7,0.7-1.2,1.8-1.5,2.3h-0.7h-5.1c0.6-0.3,1.4-0.7,1.9-1.3c1-1,0.8-1.8,0.8-1.8s-0.9-0.2-1.8,0.8c-0.7,0.7-1.2,1.8-1.5,2.3h-5.8
	c0.6-0.3,1.4-0.7,1.9-1.3c1-1,0.8-1.8,0.8-1.8s-0.9-0.2-1.8,0.8c-0.7,0.7-1.2,1.8-1.5,2.3H0.5C0.3,3.7,0.1,3.8,0.1,4
	c0,0.2,0.1,0.3,0.3,0.3h59.6c0.2,0.5,0.8,1.6,1.5,2.3c1,1,1.8,0.8,1.8,0.8s0.2-0.9-0.8-1.8c-0.5-0.5-1.3-1-1.9-1.3h5.8
	c0.2,0.5,0.8,1.6,1.5,2.3c1,1,1.8,0.8,1.8,0.8s0.2-0.9-0.8-1.8c-0.5-0.5-1.3-1-1.9-1.3h5.8c0.2,0.5,0.8,1.6,1.5,2.3
	c1,1,1.8,0.8,1.8,0.8s0.2-0.9-0.8-1.8c-0.5-0.5-1.3-1-1.9-1.3h5.7c0.2,0.5,0.8,1.6,1.5,2.3c1,1,1.8,0.8,1.8,0.8s0.2-0.9-0.8-1.8
	c-0.5-0.5-1.3-1-1.9-1.3h5.8c0.2,0.5,0.8,1.6,1.5,2.3C88,7.6,88.8,7.4,88.8,7.4 M90.8,5.1c-0.3-0.3-0.8-0.4-1-0.1
	c-0.2,0.2-0.2,0.7,0.1,1c0.3,0.3,0.8,0.4,1,0.1C91.2,5.9,91.1,5.4,90.8,5.1 M58.9,5.1c-0.3-0.3-0.8-0.4-1-0.1
	c-0.2,0.2-0.2,0.7,0.1,1c0.3,0.3,0.8,0.4,1,0.1C59.3,5.9,59.2,5.4,58.9,5.1 M65.3,5.1c-0.3-0.3-0.8-0.4-1-0.1
	c-0.2,0.2-0.2,0.7,0.1,1c0.3,0.3,0.8,0.4,1,0.1C65.7,5.9,65.6,5.4,65.3,5.1 M71.7,5.1c-0.3-0.3-0.8-0.4-1-0.1
	c-0.2,0.2-0.2,0.7,0.1,1c0.3,0.3,0.8,0.4,1,0.1C72.1,5.9,72.1,5.4,71.7,5.1 M91.9,3.1c0.2,0.2,0.7,0.2,1-0.1c0.3-0.3,0.4-0.8,0.1-1
	c-0.2-0.2-0.7-0.2-1,0.1C91.7,2.3,91.6,2.8,91.9,3.1 M59.8,3.1c0.2,0.2,0.7,0.2,1-0.1c0.3-0.3,0.4-0.8,0.1-1c-0.2-0.2-0.7-0.2-1,0.1
	C59.6,2.3,59.6,2.8,59.8,3.1 M66.2,3.1c0.2,0.2,0.7,0.2,1-0.1c0.3-0.3,0.4-0.8,0.1-1c-0.2-0.2-0.7-0.2-1,0.1C66,2.3,66,2.8,66.2,3.1
	 M72.6,3.1c0.2,0.2,0.7,0.2,1-0.1c0.3-0.3,0.4-0.8,0.1-1c-0.2-0.2-0.7-0.2-1,0.1C72.4,2.3,72.4,2.8,72.6,3.1"/>
</svg>
