<?xml version="1.0" encoding="utf-8"?>
<!-- Generator: Adobe Illustrator 16.0.0, SVG Export Plug-In . SVG Version: 6.00 Build 0)  -->
<!DOCTYPE svg PUBLIC "-//W3C//DTD SVG 1.1//EN" "http://www.w3.org/Graphics/SVG/1.1/DTD/svg11.dtd">
<svg version="1.1" id="Layer_1" xmlns="http://www.w3.org/2000/svg" xmlns:xlink="http://www.w3.org/1999/xlink" x="0px" y="0px"
	 width="64px" height="24px" viewBox="-16 4 64 24" enable-background="new -16 4 64 24" xml:space="preserve">
<path fill="#EB6852" d="M46.348,19.025c-0.824-0.826-2.196-1.102-2.748-0.275c-0.544,0.546-0.544,1.923,0.281,2.752
	c0.822,0.821,2.194,1.095,2.746,0.272C47.451,21.23,47.178,19.848,46.348,19.025 M32.053,16.827
	c0.551,1.372,2.205,4.403,4.128,6.328c2.746,2.746,4.952,2.198,4.952,2.198s0.542-2.479-2.206-4.954
	c-1.381-1.374-3.577-2.752-5.229-3.572H32.053z M14.451,16.827c0.551,1.372,2.205,4.403,4.128,6.328
	c2.748,2.746,4.952,2.198,4.952,2.198s0.541-2.479-2.204-4.954c-1.381-1.374-3.579-2.752-5.231-3.572H14.451z M-3.152,16.827
	c0.552,1.372,2.206,4.403,4.13,6.328c2.746,2.746,4.952,2.198,4.952,2.198s0.543-2.479-2.206-4.954
	c-1.373-1.374-3.568-2.752-5.229-3.572H-3.152z M-13.596,15.173c1.645-0.824,3.848-1.925,5.222-3.574
	c2.748-2.751,2.196-4.952,2.196-4.952s-2.467-0.546-4.951,2.201c-1.926,1.924-3.298,4.95-4.121,6.325H-13.596z M4.005,15.173
	c1.645-0.824,3.848-1.925,5.215-3.574c2.755-2.751,2.203-4.952,2.203-4.952s-2.476-0.546-4.95,2.201
	c-1.925,1.924-3.299,4.95-4.122,6.325H4.005z M21.604,15.173c1.646-0.824,3.852-1.925,5.216-3.574
	c2.757-2.751,2.206-4.952,2.206-4.952s-2.476-0.546-4.954,2.201c-1.925,1.924-3.297,4.95-4.126,6.325H21.604z M39.209,15.173
	c1.645-0.824,3.847-1.925,5.213-3.574c2.756-2.751,2.205-4.952,2.205-4.952s-2.476-0.546-4.952,2.201
	c-1.923,1.924-3.3,4.95-4.129,6.325H39.209z M-6.178,19.025C-7,18.199-8.374,17.924-8.925,18.75
	c-0.551,0.546-0.551,1.923,0.28,2.752c0.823,0.821,2.195,1.095,2.747,0.272C-5.076,21.23-5.355,19.848-6.178,19.025 M11.423,19.025
	c-0.823-0.826-2.203-1.102-2.746-0.275c-0.552,0.546-0.552,1.923,0.271,2.752c0.831,0.821,2.205,1.095,2.756,0.272
	C12.526,21.23,12.246,19.848,11.423,19.025 M29.026,19.025c-0.825-0.826-2.206-1.102-2.749-0.275
	c-0.552,0.546-0.552,1.923,0.273,2.752c0.829,0.821,2.194,1.095,2.754,0.272C30.13,21.23,30.13,19.848,29.026,19.025 M-3.701,13.523
	c0.549,0.552,1.924,0.552,2.755-0.275c0.823-0.822,1.103-2.2,0.271-2.748c-0.552-0.55-1.925-0.55-2.756,0.271
	C-4.253,11.323-4.253,12.701-3.701,13.523 M13.9,13.523c0.551,0.552,1.925,0.552,2.755-0.275c0.822-0.822,1.093-2.2,0.272-2.748
	c-0.553-0.55-1.926-0.55-2.756,0.271C13.349,11.323,13.349,12.701,13.9,13.523 M31.501,13.523c0.552,0.552,1.925,0.552,2.757-0.275
	c0.821-0.822,1.092-2.2,0.27-2.748c-0.55-0.55-1.924-0.55-2.756,0.271C30.949,11.323,30.949,12.701,31.501,13.523"/>
</svg>
