<?xml version="1.0" encoding="utf-8"?>
<!-- Generator: Adobe Illustrator 16.0.0, SVG Export Plug-In . SVG Version: 6.00 Build 0)  -->
<!DOCTYPE svg PUBLIC "-//W3C//DTD SVG 1.1//EN" "http://www.w3.org/Graphics/SVG/1.1/DTD/svg11.dtd">
<svg version="1.1" id="Layer_1" xmlns="http://www.w3.org/2000/svg" xmlns:xlink="http://www.w3.org/1999/xlink" x="0px" y="0px"
	 width="64px" height="24px" viewBox="-16 4 64 24" enable-background="new -16 4 64 24" xml:space="preserve">
<path fill="#EB6852" d="M-14.473,19.025c-0.83,0.822-1.104,2.205-0.279,2.749c0.552,0.822,1.924,0.549,2.746-0.272
	c0.825-0.829,0.825-2.206,0.281-2.752C-12.276,17.924-13.648,18.199-14.473,19.025 M-1.823,16.827
	c-1.651,0.82-3.848,2.198-5.229,3.572c-2.748,2.476-2.206,4.954-2.206,4.954s2.206,0.548,4.952-2.198
	c1.923-1.925,3.577-4.956,4.128-6.328H-1.823z M15.779,16.827c-1.652,0.82-3.85,2.198-5.231,3.572
	c-2.745,2.476-2.204,4.954-2.204,4.954s2.204,0.548,4.952-2.198c1.924-1.925,3.577-4.956,4.128-6.328H15.779z M33.381,16.827
	c-1.662,0.82-3.857,2.198-5.23,3.572c-2.749,2.476-2.205,4.954-2.205,4.954s2.205,0.548,4.951-2.198
	c1.925-1.925,3.578-4.956,4.131-6.328H33.381z M47.125,15.173c-0.822-1.375-2.195-4.401-4.121-6.325
	c-2.483-2.747-4.951-2.201-4.951-2.201s-0.551,2.201,2.196,4.952c1.374,1.649,3.577,2.75,5.222,3.574H47.125z M29.523,15.173
	c-0.823-1.375-2.197-4.401-4.122-6.325c-2.474-2.747-4.95-2.201-4.95-2.201s-0.551,2.201,2.203,4.952
	c1.367,1.649,3.57,2.75,5.215,3.574H29.523z M11.929,15.173c-0.829-1.375-2.201-4.401-4.126-6.325
	C5.324,6.101,2.849,6.647,2.849,6.647s-0.551,2.201,2.206,4.952c1.364,1.649,3.569,2.75,5.216,3.574H11.929z M-5.671,15.173
	C-6.5,13.798-7.877,10.772-9.8,8.848c-2.477-2.747-4.952-2.201-4.952-2.201s-0.551,2.201,2.205,4.952
	c1.366,1.649,3.568,2.75,5.213,3.574H-5.671z M38.053,19.025c-0.822,0.822-1.102,2.205-0.279,2.749
	c0.552,0.822,1.924,0.549,2.747-0.272c0.831-0.829,0.831-2.206,0.28-2.752C40.249,17.924,38.875,18.199,38.053,19.025
	 M20.451,19.025c-0.822,0.822-1.103,2.205-0.279,2.749c0.551,0.822,1.924,0.549,2.756-0.272c0.822-0.829,0.822-2.206,0.27-2.752
	C22.654,17.924,21.274,18.199,20.451,19.025 M2.849,19.025c-1.104,0.822-1.104,2.205-0.278,2.749
	c0.56,0.822,1.925,0.549,2.754-0.272c0.825-0.829,0.825-2.206,0.273-2.752C5.055,17.924,3.674,18.199,2.849,19.025 M35.576,13.523
	c0.552-0.822,0.552-2.2-0.27-2.751c-0.832-0.821-2.205-0.821-2.757-0.271c-0.831,0.547-0.552,1.925,0.271,2.748
	C33.652,14.075,35.027,14.075,35.576,13.523 M17.975,13.523c0.552-0.822,0.552-2.2-0.271-2.751c-0.83-0.821-2.203-0.821-2.756-0.271
	c-0.82,0.547-0.55,1.925,0.272,2.748C16.05,14.075,17.424,14.075,17.975,13.523 M0.374,13.523c0.552-0.822,0.552-2.2-0.271-2.751
	C-0.729,9.951-2.103,9.951-2.652,10.5c-0.822,0.547-0.552,1.925,0.27,2.748C-1.551,14.075-0.178,14.075,0.374,13.523"/>
</svg>
