<?xml version="1.0" encoding="utf-8"?>
<!-- Generator: Adobe Illustrator 16.0.0, SVG Export Plug-In . SVG Version: 6.00 Build 0)  -->
<!DOCTYPE svg PUBLIC "-//W3C//DTD SVG 1.1//EN" "http://www.w3.org/Graphics/SVG/1.1/DTD/svg11.dtd">
<svg version="1.1" id="Layer_1" xmlns="http://www.w3.org/2000/svg" xmlns:xlink="http://www.w3.org/1999/xlink" x="0px" y="0px"
	 width="100px" height="20px" viewBox="-2.25 37.398 100 20" enable-background="new -2.25 37.398 100 20" xml:space="preserve">
<g id="front">
	<path fill="#E3D0A5" d="M1.182,40.678c0-0.409,0.142-0.766,0.426-1.067c0.302-0.302,0.658-0.444,1.084-0.444h4.516
		c0.409,0,0.765,0.144,1.067,0.444c0.302,0.302,0.444,0.658,0.444,1.067c0-0.409,0.142-0.766,0.427-1.067
		c0.302-0.302,0.658-0.444,1.084-0.444h4.533c0.409,0,0.765,0.144,1.066,0.444c0.302,0.302,0.445,0.658,0.445,1.067v13.564h-3.04
		V42.189h-3.022v12.054H7.208V42.189H4.186v12.054H1.182V43.379V40.678z"/>
	<path fill="#E3D0A5" d="M33.999,54.243V39.167h7.538c0.409,0,0.764,0.144,1.066,0.444c0.302,0.302,0.444,0.658,0.444,1.067v6.027
		c0,0.426-0.142,0.781-0.444,1.084c-0.302,0.285-0.658,0.426-1.066,0.426c0.409,0,0.764,0.143,1.066,0.443
		c0.302,0.303,0.444,0.657,0.444,1.065v4.517h-3.022v-4.517h-3.004v4.517L33.999,54.243L33.999,54.243z M40.026,46.706v-4.517
		h-3.004v4.517H40.026z"/>
	<path fill="#E3D0A5" d="M60.881,54.243V40.678c0-0.409,0.141-0.766,0.426-1.067c0.303-0.302,0.658-0.444,1.084-0.444h6.027
		c0.408,0,0.764,0.144,1.064,0.444c0.305,0.302,0.445,0.658,0.445,1.067v13.564h-3.004v-3.021h-3.021v3.004h-3.021V54.243
		L60.881,54.243z M66.906,48.215V42.19h-3.021v6.025H66.906z"/>
	<polygon fill="#E3D0A5" points="76.738,54.243 76.738,42.189 73.715,42.189 73.715,39.167 82.764,39.167 82.764,42.189 
		79.742,42.189 79.742,54.243 	"/>
	<path fill="#E3D0A5" d="M22.16,54.243c-0.427,0-0.782-0.144-1.084-0.427c-0.284-0.303-0.427-0.657-0.427-1.086V40.678
		c0-0.409,0.143-0.766,0.427-1.067c0.302-0.302,0.658-0.444,1.084-0.444h7.538v3.004h-6.026v3.022h5.28v3.005h-5.28v3.02h6.026
		v3.005H22.16V54.243z"/>
	<path fill="#E3D0A5" d="M48.951,54.243c-0.428,0-0.782-0.144-1.083-0.427c-0.284-0.303-0.427-0.657-0.427-1.086V40.678
		c0-0.409,0.143-0.766,0.427-1.067c0.302-0.302,0.657-0.444,1.083-0.444h6.027c0.408,0,0.764,0.144,1.066,0.444
		c0.301,0.302,0.443,0.658,0.443,1.067V43.7h-3.004v-1.511h-3.021v9.032h3.021v-1.494h3.006v3.004c0,0.428-0.145,0.783-0.445,1.086
		c-0.303,0.283-0.656,0.426-1.064,0.426H48.951L48.951,54.243z"/>
	<path fill="#E3D0A5" d="M88.15,54.243c-0.426,0-0.781-0.144-1.084-0.427c-0.283-0.303-0.426-0.657-0.426-1.086V40.678
		c0-0.409,0.143-0.766,0.426-1.067c0.303-0.302,0.658-0.444,1.084-0.444h6.027c0.408,0,0.764,0.144,1.066,0.444
		c0.303,0.302,0.443,0.658,0.443,1.067V52.73c0,0.429-0.145,0.783-0.443,1.086c-0.305,0.283-0.658,0.427-1.066,0.427H88.15z
		 M92.666,51.221V42.19h-3.004v9.031H92.666z"/>
</g>
<g>
	<path fill="#EB6852" d="M41.537,48.215c0.038,0,0.074,0.01,0.111,0.012c0.001-0.012,0.002-0.021,0.002-0.031
		C41.612,48.198,41.578,48.215,41.537,48.215z"/>
	<rect x="23.671" y="42.17" fill="#EB6852" width="4.658" height="1.388"/>
	<rect x="23.671" y="48.198" fill="#EB6852" width="3.911" height="1.387"/>
	<path fill="#EB6852" d="M8.72,40.678c0-0.389,0.138-0.725,0.394-1.018l-0.49,0.49C8.686,40.316,8.72,40.491,8.72,40.678z"/>
	<path fill="#EB6852" d="M1.182,54.243V43.379v-2.701c0-0.367,0.132-0.686,0.361-0.967L0.24,41.016
		c-0.285,0.302-0.427,0.658-0.427,1.066v2.666v10.862h3.022v-1.368H1.182z"/>
	<polygon fill="#EB6852" points="66.906,48.215 66.906,42.189 63.885,42.189 63.885,43.558 65.537,43.558 65.537,48.215 	"/>
	<polygon fill="#EB6852" points="7.208,54.243 7.208,42.189 4.186,42.189 4.186,43.558 5.857,43.558 5.857,55.611 8.862,55.611 
		8.862,54.243 	"/>
	<polygon fill="#EB6852" points="92.666,51.221 92.666,42.189 89.662,42.189 89.662,43.558 91.281,43.558 91.281,51.221 	"/>
	<polygon fill="#EB6852" points="53.484,43.702 53.484,42.189 50.463,42.189 50.463,43.558 52.098,43.558 52.098,45.069 
		55.102,45.069 55.102,43.702 	"/>
	<polygon fill="#EB6852" points="40.026,46.706 40.026,42.189 37.022,42.189 37.022,43.558 38.657,43.558 38.657,46.706 	"/>
	<polygon fill="#EB6852" points="66.924,54.243 66.924,51.221 63.902,51.221 63.902,52.607 65.537,52.607 65.537,55.611 
		68.543,55.611 68.543,54.243 	"/>
	<polygon fill="#EB6852" points="13.235,54.243 13.235,42.189 10.213,42.189 10.213,43.558 11.884,43.558 11.884,55.611 
		14.889,55.611 14.889,54.243 	"/>
	<polygon fill="#EB6852" points="76.738,54.243 76.738,42.189 73.715,42.189 73.715,39.167 72.346,40.554 72.346,43.558 
		75.352,43.558 75.352,55.611 78.373,55.611 78.373,54.243 	"/>
	<path fill="#EB6852" d="M94.178,54.243H88.15c-0.426,0-0.781-0.144-1.084-0.427c-0.283-0.303-0.426-0.657-0.426-1.086V40.678
		c0-0.389,0.139-0.725,0.393-1.016l-1.336,1.334c-0.283,0.303-0.426,0.658-0.426,1.067v12.054c0,0.426,0.143,0.78,0.426,1.084
		c0.303,0.284,0.658,0.426,1.086,0.426h6.025c0.408,0,0.766-0.142,1.066-0.426c0.275-0.277,0.414-0.604,0.436-0.984
		C94.266,54.221,94.225,54.243,94.178,54.243z"/>
	<path fill="#EB6852" d="M60.881,54.225V40.678c0-0.391,0.137-0.729,0.395-1.021l-0.004-0.01l-1.352,1.352
		c-0.285,0.301-0.426,0.658-0.426,1.066v13.564h3.02v-1.404H60.881L60.881,54.225z"/>
	<rect x="79.742" y="42.189" fill="#EB6852" width="1.637" height="1.369"/>
	<polygon fill="#EB6852" points="33.999,54.243 33.999,39.204 32.648,40.554 32.648,55.611 35.635,55.611 35.635,54.243 	"/>
	<path fill="#EB6852" d="M54.979,54.243h-6.027c-0.428,0-0.782-0.144-1.083-0.427c-0.284-0.303-0.427-0.657-0.427-1.086V40.678
		c0-0.387,0.138-0.725,0.394-1.016l-1.318,1.317l-0.018,0.019c-0.285,0.301-0.427,0.658-0.427,1.066v12.053
		c0,0.428,0.142,0.782,0.427,1.086c0.302,0.282,0.658,0.426,1.084,0.426h6.009c0.408,0,0.764-0.144,1.066-0.426
		c0.275-0.277,0.412-0.603,0.436-0.982C55.053,54.225,55.02,54.243,54.979,54.243z"/>
	<path fill="#EB6852" d="M22.16,54.225v0.02c-0.427,0-0.782-0.143-1.084-0.428c-0.284-0.303-0.427-0.656-0.427-1.084V40.678
		c0-0.387,0.138-0.725,0.394-1.016l-1.335,1.334c-0.285,0.303-0.427,0.658-0.427,1.067v12.054c0,0.426,0.142,0.78,0.427,1.084
		c0.302,0.284,0.658,0.426,1.084,0.426h7.538v-1.402H22.16L22.16,54.225z"/>
	<polygon fill="#EB6852" points="40.026,54.243 40.026,49.727 37.022,49.727 37.022,51.096 38.657,51.096 38.657,55.611 
		41.662,55.611 41.662,54.243 	"/>
</g>
<g>
	<path fill="#C33A32" d="M20.651,52.747l-1.372,1.371v0.055c0,0.16,0.036,0.32,0.089,0.461l1.375-1.375
		C20.689,53.1,20.653,52.932,20.651,52.747z"/>
	<polygon fill="#C33A32" points="7.226,54.243 5.84,55.611 8.862,55.611 10.231,54.243 10.213,54.243 	"/>
	<polygon fill="#C33A32" points="27.582,49.584 28.951,48.215 28.742,48.198 23.671,48.198 23.671,49.584 	"/>
	<polygon fill="#C33A32" points="1.182,54.243 -0.187,55.611 2.817,55.611 4.204,54.243 4.186,54.243 	"/>
	<polygon fill="#C33A32" points="11.866,55.611 14.889,55.611 16.257,54.243 13.253,54.243 	"/>
	<polygon fill="#C33A32" points="13.235,42.208 13.235,42.189 10.231,42.189 10.231,43.577 11.866,43.577 	"/>
	<polygon fill="#C33A32" points="7.208,42.194 7.208,42.189 4.204,42.189 4.204,43.577 5.84,43.577 	"/>
	<polygon fill="#C33A32" points="51.973,51.221 53.484,51.221 53.484,49.727 53.467,49.727 	"/>
	<polygon fill="#C33A32" points="66.912,51.221 63.902,51.221 63.902,52.607 65.537,52.607 	"/>
	<polygon fill="#C33A32" points="89.662,42.189 89.662,43.577 91.297,43.577 92.666,42.193 92.666,42.189 	"/>
	<polygon fill="#C33A32" points="37.022,42.189 37.022,43.577 38.657,43.577 40.026,42.193 40.026,42.189 	"/>
	<polygon fill="#C33A32" points="53.471,42.189 50.463,42.189 50.463,43.577 52.098,43.577 	"/>
	<polygon fill="#C33A32" points="37.022,49.727 37.022,51.096 38.657,51.096 40.026,49.728 40.026,49.727 	"/>
	<polygon fill="#C33A32" points="63.902,42.189 63.902,43.577 65.537,43.577 66.906,42.195 66.906,42.189 	"/>
	<polygon fill="#C33A32" points="75.352,55.611 78.373,55.611 79.742,54.243 76.738,54.243 	"/>
	<polygon fill="#C33A32" points="76.738,42.189 73.719,42.189 72.346,43.577 75.352,43.577 	"/>
	<polygon fill="#C33A32" points="66.906,54.243 65.537,55.611 68.543,55.611 69.93,54.243 66.924,54.243 	"/>
	<path fill="#C33A32" d="M86.641,52.73L86.641,52.73l-1.387,1.388v0.055c0,0.16,0.035,0.32,0.088,0.461l1.391-1.391
		C86.68,53.083,86.641,52.917,86.641,52.73z"/>
	<path fill="#C33A32" d="M94.178,54.243H88.15c-0.426,0-0.781-0.144-1.084-0.427l-1.387,1.388c0.143,0.143,0.32,0.248,0.498,0.301
		c0.178,0.072,0.373,0.106,0.568,0.106h0.018h5.939h0.088c0.373,0,0.711-0.125,0.996-0.373h0.018l0.07-0.071l1.32-1.316
		C94.902,54.104,94.566,54.243,94.178,54.243z"/>
	<path fill="#C33A32" d="M22.16,54.225v0.02c-0.427,0-0.782-0.143-1.084-0.428l-1.387,1.389c0.142,0.142,0.32,0.248,0.498,0.301
		c0.178,0.072,0.373,0.105,0.586,0.105h7.538l1.369-1.367l-0.355-0.02H22.16z"/>
	<polygon fill="#C33A32" points="59.512,55.611 62.516,55.611 63.902,54.243 60.881,54.243 	"/>
	<polygon fill="#C33A32" points="79.742,43.577 81.377,43.577 82.764,42.189 79.742,42.189 	"/>
	<polygon fill="#C33A32" points="32.631,55.611 35.635,55.611 37.022,54.243 33.999,54.243 	"/>
	<polygon fill="#C33A32" points="23.671,43.577 28.311,43.577 29.697,42.189 23.671,42.189 	"/>
	<polygon fill="#C33A32" points="38.657,55.611 41.662,55.611 43.048,54.243 40.044,54.243 	"/>
	<path fill="#C33A32" d="M47.439,52.73l-1.386,1.388v0.055c0,0.16,0.035,0.32,0.089,0.461l1.39-1.391
		C47.478,53.083,47.439,52.917,47.439,52.73z"/>
	<path fill="#C33A32" d="M54.979,54.243h-6.027c-0.428,0-0.782-0.144-1.083-0.427l-1.387,1.388c0.143,0.143,0.32,0.248,0.498,0.301
		c0.178,0.072,0.373,0.106,0.586,0.106h5.548h0.479c0.373,0,0.711-0.125,0.994-0.373h0.02l0.07-0.071l1.318-1.316
		C55.703,54.104,55.367,54.243,54.979,54.243z"/>
	<polygon fill="#C33A32" points="53.467,43.702 52.098,45.069 55.102,45.069 56.49,43.702 53.484,43.702 	"/>
</g>
</svg>
